P2
32 30
255
112 80 146 185 121 89 181 240 165 127
119 211 119 175 208 216 158 88 201 206
229 121 188 171 119 211 176 226 193 165
210 180 203 117 213 141 101 201 92 132
96 183 168 196 150 159 173 104 86 162
179 98 198 123 94 136 210 177 76 121
184 144 107 195 216 135 196 108 199 178
72 80 160 106 91 110 215 189 130 89
96 107 224 216 228 94 179 114 115 83
182 80 154 223 113 168 133 122 79 228
99 123 169 137 173 112 198 171 190 157
129 216 169 80 94 128 138 104 90 190
80 139 178 204 202 198 105 155 224 125
209 79 169 156 145 112 182 111 143 174
165 124 190 220 103 105 73 74 96 73
150 194 161 198 195 220 222 225 94 213
96 180 66 97 95 85 223 139 209 82
115 232 153 235 161 216 157 127 136 154
163 92 89 189 168 204 184 205 91 103
93 127 164 204 196 193 154 184 179 195
96 222 196 224 135 181 171 178 131 154
145 199 114 179 112 129 85 234 156 195
89 129 172 101 230 90 195 218 139 211
200 80 197 210 79 103 182 217 198 155
110 223 157 135 131 150 221 156 128 216
150 167 189 134 124 212 225 119 159 115
150 90 142 119 224 183 115 213 199 166
111 134 98 202 189 136 110 75 204 175
212 82 144 130 208 157 141 175 172 151
222 119 216 162 89 134 101 207 160 139
234 176 160 164 147 168 106 72 85 120
159 98 222 107 224 113 172 171 149 215
181 155 232 125 88 107 129 213 239 204
154 203 85 150 201 214 234 125 161 160
54 66 98 202 149 138 148 120 166 92
174 76 160 95 209 187 214 164 104 160
225 121 147 210 98 146 200 244 195 144
188 89 166 109 88 211 203 85 165 127
158 162 207 83 210 96 186 157 101 201
202 137 135 143 96 61 160 128 181 216
184 162 152 186 187 80 140 215 115 185
182 87 199 70 120 99 153 127 197 112
138 211 87 104 135 191 62 223 192 137
236 80 120 115 190 124 134 174 182 126
186 146 185 219 131 178 91 216 115 110
85 101 144 101 158 135 127 179 117 211
74 177 90 126 161 183 175 92 129 190
161 115 137 86 87 108 201 92 68 207
147 138 78 89 96 132 191 121 191 214
104 110 130 139 208 170 194 142 59 167
119 99 191 137 79 120 130 153 189 85
178 204 99 171 209 192 186 111 93 201
189 192 215 130 102 214 216 135 135 168
172 58 46 67 162 156 72 215 170 140
134 122 112 226 184 134 97 220 160 74
226 138 188 140 227 93 236 144 164 175
79 56 52 83 115 96 107 71 134 110
77 191 106 101 85 150 225 96 187 127
179 181 141 194 215 140 146 94 152 124
160 240 184 171 147 139 146 74 81 64
75 82 107 139 216 226 115 169 202 142
229 175 230 184 103 188 90 91 148 181
191 109 237 201 122 174 147 102 41 0
158 111 95 104 146 89 191 215 146 227
150 197 216 80 190 208 121 190 166 162
153 139 193 80 90 218 223 88 174 125
81 170 84 200 174 178 103 150 106 119
207 176 234 178 86 115 172 105 182 209
102 153 196 98 151 177 122 125 227 212
150 150 221 127 171 185 102 146 199 117
208 100 229 173 204 131 216 198 164 158
125 231 101 112 52 114 171 178 165 150
85 255 249 126 202 194 85 125 223 124
214 186 206 234 85 214 161 145 226 87
122 169 214 226 203 107 55 172 133 177
124 108 115 149 184 192 231 102 169 223
164 207 113 211 127 198 155 147 147 164
143 151 97 84 85 168 80 192 42 93
84 115 160 151 106 137 208 180 253 176
191 142 108 186 120 84 162 93 219 234
201 205 165 153 83 134 88 126 142 106
203 159 214 67 111 203 69 123 206 252
163 178 192 119 138 137 137 99 215 132
227 85 146 217 97 203 133 161 138 140
202 97 78 89 172 72 164 169 226 116
159 202 169 213 103 158 138 74 137 193
199 170 212 211 188 112 202 155 199 118
145 116 164 107 158 161 162 77 163 97
143 92 99 219 161 112 187 165 112 202
85 132 215 222 162 109 158 189 170 105
112 210 213 103 212 94 212 201 78 206
211 233 80 196 152 159 196 212 219 90
185 175 123 181 170 125 135 237 182 66
113 89 224 186 128 147 186 101 105 148
132 70 165 106 132 167 146 161 210 232
184 205 95 118 117 131 100 165 128 110

