P2
32 30
255
106 58 137 177 84 47 168 225 135 89
69 193 72 141 187 188 112 28 171 176
209 76 163 144 78 201 160 225 185 148
208 168 199 80 197 108 55 183 46 92
48 168 139 174 120 126 151 50 22 135
158 56 191 87 51 108 213 167 37 98
180 126 71 188 215 101 184 77 208 166
29 25 140 69 43 70 208 165 83 25
38 66 222 217 236 51 172 88 88 43
179 41 139 231 78 153 103 115 38 223
58 89 148 95 156 68 177 149 168 118
89 203 135 26 49 103 118 72 58 187
30 112 169 204 197 190 69 135 224 123
219 43 161 147 130 82 189 87 109 160
125 67 165 206 55 67 30 37 67 38
136 190 123 171 193 232 232 231 56 214
57 179 33 68 51 46 226 113 202 36
64 230 106 216 123 204 120 79 106 136
142 57 52 188 133 159 164 213 61 71
57 100 150 198 181 174 140 168 168 169
36 211 166 195 86 166 161 140 63 102
82 165 69 169 79 105 42 200 125 198
57 105 163 64 235 62 212 235 129 195
194 26 198 225 47 59 155 208 173 104
72 227 125 86 101 132 227 135 110 204
130 157 187 110 97 209 224 82 154 97
144 60 132 95 236 175 89 206 164 116
28 88 47 203 183 120 108 63 212 159
219 46 119 97 200 135 120 160 157 110
223 75 207 143 56 98 51 201 123 85
191 98 73 111 108 191 135 69 94 145
170 61 223 68 225 87 165 165 135 219
172 120 232 69 22 61 96 183 196 160
99 163 15 47 62 114 219 148 238 223
69 60 89 212 119 103 122 100 164 67
170 38 148 25 188 156 202 120 41 126
188 84 105 202 46 73 122 218 159 68
162 30 198 114 85 232 199 38 152 104
140 146 212 47 215 40 163 105 48 179
165 95 88 158 59 26 170 43 100 241
178 45 40 140 203 61 117 190 83 187
180 45 185 26 97 62 130 96 196 70
107 206 34 50 85 219 32 207 195 79
208 44 68 8 121 79 137 130 159 71
167 133 188 215 97 167 57 219 79 98
68 68 119 64 134 77 43 132 91 177
27 122 37 123 161 129 143 123 169 174
106 59 112 36 55 70 207 50 30 204
124 124 41 38 35 84 156 85 156 187
65 47 55 70 157 147 206 117 53 230
203 83 163 111 52 107 123 135 185 39
173 197 65 172 202 176 181 63 11 178
156 170 183 62 36 146 151 62 127 178
220 71 72 76 169 151 44 228 162 117
114 94 85 215 165 126 52 228 163 30
208 93 155 68 176 23 192 34 52 112
35 49 92 104 146 126 113 47 127 81
33 190 83 60 39 116 211 64 178 99
173 179 96 178 210 65 63 15 80 11
53 178 167 169 187 209 229 118 117 45
62 49 80 125 224 233 85 130 167 108
215 137 211 160 31 165 38 10 71 147
140 12 181 128 62 174 157 152 67 42
202 90 83 85 127 52 190 220 113 199
100 198 215 28 165 194 56 153 138 116
107 97 157 26 39 196 201 36 163 108
67 218 81 209 170 179 56 132 74 89
195 130 212 145 30 74 160 69 154 182
56 107 177 50 114 225 147 126 209 148
34 57 175 123 215 195 48 102 175 78
201 47 221 133 176 92 213 190 144 137
83 221 66 58 14 75 144 233 222 203
53 182 148 25 101 149 38 73 219 108
231 165 173 205 22 191 133 91 207 32
59 149 193 203 172 50 51 175 93 202
184 156 140 80 90 71 107 5 154 225
149 220 57 160 63 162 104 93 110 121
103 119 40 36 38 145 41 191 45 52
31 101 197 180 143 115 159 98 170 109
180 133 140 240 79 0 119 25 192 212
176 201 152 139 56 137 24 63 109 72
244 181 212 63 121 227 84 101 144 222
104 118 161 68 119 123 129 52 199 80
203 16 102 221 77 227 141 126 95 91
196 55 34 61 179 67 231 202 232 92
104 177 160 216 46 137 118 24 128 158
177 140 171 177 155 89 222 181 214 75
91 61 147 69 148 160 147 66 209 110
160 88 86 255 208 72 151 125 59 191
51 76 168 191 119 32 100 201 179 125
83 187 181 25 198 52 216 218 30 216
204 202 61 235 165 228 226 190 187 23
149 137 93 137 115 47 83 201 130 32
122 105 227 152 47 72 155 54 76 156
125 38 161 62 123 193 136 165 222 216
149 173 24 54 62 63 23 116 41 30

