P2
32 30
255
102 57 138 178 84 45 169 228 136 89
70 196 72 143 190 192 115 27 174 179
213 76 165 146 78 203 161 228 187 149
211 170 201 81 201 108 56 185 45 93
47 169 141 177 121 128 153 50 23 136
160 56 192 87 50 109 215 169 36 97
181 125 70 190 217 102 187 77 211 168
28 25 141 68 42 70 211 166 83 25
39 66 225 220 238 51 173 87 88 42
180 40 140 232 78 154 103 114 37 225
58 90 148 96 157 67 178 149 170 119
89 206 138 26 48 103 118 72 58 188
29 112 170 205 199 191 68 135 226 122
221 40 162 148 129 81 190 85 109 160
126 68 167 210 56 68 29 36 66 36
136 191 125 175 195 234 234 233 54 216
56 182 33 67 50 44 228 113 205 34
65 234 109 221 127 209 124 81 107 138
144 56 50 190 136 164 167 215 59 70
56 100 150 202 184 177 142 171 171 172
36 214 169 198 90 171 162 144 66 104
83 166 68 169 80 106 41 207 127 199
55 105 163 63 237 62 213 237 129 199
197 26 201 228 44 58 158 210 172 103
70 228 126 86 99 131 229 136 108 207
130 157 188 110 96 210 227 82 153 97
144 58 130 94 239 175 86 209 167 116
26 85 45 203 185 119 106 59 211 158
219 43 119 97 202 135 119 161 159 112
224 76 210 144 54 99 53 201 126 87
201 105 76 110 105 190 133 65 93 143
168 58 226 68 228 86 167 165 134 221
173 120 232 69 20 60 95 187 200 159
99 166 17 51 70 118 221 147 238 224
69 60 86 212 121 105 124 99 165 67
173 37 148 26 189 158 203 122 43 128
189 77 103 206 49 74 124 222 161 72
166 27 197 113 81 232 202 38 154 104
141 148 215 46 215 40 162 109 48 184
170 94 83 149 56 21 169 38 96 244
183 50 46 142 205 58 118 194 83 188
180 42 186 23 95 61 129 100 200 71
109 210 32 46 85 221 28 209 195 79
208 48 71 10 125 79 136 134 163 73
169 133 190 218 97 168 55 222 79 95
65 67 118 65 134 76 46 139 87 179
23 124 33 122 157 129 146 120 167 182
111 59 111 35 56 71 210 50 27 206
124 124 37 36 33 85 160 82 159 192
63 50 56 73 163 150 205 117 53 229
201 89 166 110 50 106 124 136 187 38
173 199 63 174 205 178 184 68 15 178
157 174 188 64 39 152 154 63 126 178
222 69 72 78 169 150 43 232 166 118
113 92 82 218 167 127 52 230 164 31
210 90 155 71 181 22 197 37 54 114
32 48 91 102 150 129 112 46 129 83
34 191 80 59 36 118 216 63 180 101
175 181 97 179 211 66 65 14 83 14
57 181 165 169 187 212 234 120 116 43
61 49 80 125 225 234 83 134 173 108
218 141 215 164 31 168 38 9 76 149
143 14 188 132 58 175 159 155 69 39
201 88 83 84 127 50 190 220 112 205
105 199 217 28 168 198 58 160 142 119
111 96 158 23 38 197 199 34 165 112
70 221 78 209 174 180 56 131 72 88
196 135 218 147 31 74 161 69 158 186
55 107 180 47 113 222 145 122 208 148
32 59 181 126 211 194 49 103 174 77
203 46 224 137 180 93 217 193 145 138
84 225 61 56 12 75 148 232 225 202
50 184 149 22 105 157 38 79 227 107
230 165 174 208 23 196 136 92 211 33
60 149 198 208 172 51 49 180 98 203
184 155 139 78 87 69 112 11 155 226
150 217 56 162 62 166 106 96 112 123
105 121 39 35 40 152 44 194 42 55
36 102 196 183 140 111 160 95 176 113
181 133 136 232 75 0 119 26 196 216
180 205 155 142 55 139 31 69 111 70
243 183 218 58 117 227 77 93 144 222
106 124 164 68 119 123 128 51 200 80
209 18 106 226 77 230 144 134 98 90
195 53 32 59 181 62 226 198 231 87
104 178 163 223 46 137 118 24 127 160
177 141 177 182 160 91 226 184 220 78
91 60 148 68 148 160 149 62 205 109
158 85 81 255 209 71 154 129 62 196
51 76 172 193 123 34 105 203 183 126
86 190 184 25 202 52 219 222 32 215
203 206 54 232 159 225 228 193 191 25
153 141 94 138 120 47 84 205 134 32
124 106 231 154 48 73 159 54 77 158
128 38 161 60 122 192 135 165 223 219
153 177 25 56 64 65 24 118 42 31

