P2
32 30
255
107 36 126 174 75 25 160 233 128 75
60 195 62 138 188 196 115 16 178 184
217 66 163 141 67 201 154 225 179 137
204 158 192 71 208 99 44 188 34 87
30 160 135 172 110 118 143 38 13 128
154 37 183 73 32 95 207 157 11 78
169 109 51 180 210 95 190 61 198 163
12 13 128 50 25 54 206 161 73 13
29 49 222 213 230 32 162 68 68 20
167 17 125 225 61 142 88 85 19 228
43 80 139 86 144 50 174 136 163 113
76 205 136 9 31 85 99 51 36 178
10 99 158 196 191 184 49 122 220 89
212 17 147 126 109 61 174 63 98 146
119 58 161 212 46 54 7 11 43 11
122 183 125 180 186 224 226 228 34 208
36 173 13 53 37 24 227 99 202 15
58 228 99 220 121 206 120 79 97 123
128 35 34 182 137 181 166 203 36 50
35 82 137 200 184 172 130 169 169 180
32 215 168 196 85 171 146 137 60 93
67 154 38 152 65 93 23 225 123 187
32 87 148 42 230 44 196 219 102 197
187 7 186 215 12 46 170 207 155 83
43 214 122 81 74 101 219 121 86 207
116 143 176 92 78 205 224 69 134 76
124 33 109 69 228 160 75 227 174 111
11 51 4 184 182 120 106 38 199 142
208 19 107 85 197 124 108 152 150 107
212 59 204 128 27 88 41 192 137 108
230 123 83 92 63 175 110 60 109 141
156 33 219 53 227 70 156 153 126 218
165 116 229 63 9 42 79 198 223 173
126 207 34 74 102 122 204 121 215 224
87 66 75 202 111 95 113 83 152 46
166 20 141 30 198 170 206 120 35 130
205 77 127 238 61 65 92 210 119 47
158 9 203 102 52 224 195 21 137 84
127 133 205 24 205 36 150 108 38 194
183 82 72 127 76 34 180 14 54 223
181 55 61 139 221 46 117 203 67 175
164 17 181 7 86 49 127 90 188 56
98 208 23 33 74 223 34 218 214 72
215 48 60 18 168 88 148 162 188 81
165 118 176 214 87 168 45 224 73 62
25 51 109 49 130 85 57 167 96 200
29 143 25 146 162 137 179 119 167 225
154 61 96 17 33 58 203 43 13 205
120 115 17 30 29 80 167 75 168 213
75 82 85 100 210 192 228 134 60 224
183 112 191 98 27 79 102 125 182 25
166 200 48 168 203 175 174 61 21 187
168 197 213 72 59 199 219 112 152 202
244 57 54 74 159 137 23 226 158 115
105 82 69 218 162 112 34 220 141 9
215 78 157 92 215 27 221 82 124 171
59 60 97 92 150 125 92 28 114 69
16 194 61 45 23 112 217 40 169 91
165 172 93 175 216 79 96 51 119 66
120 244 195 187 200 221 255 110 91 19
30 28 58 118 220 230 66 134 172 89
214 140 220 169 28 167 33 31 131 206
190 53 240 173 73 185 166 154 77 29
205 80 64 68 114 29 179 218 103 215
106 184 201 9 166 201 53 165 149 146
152 134 189 26 35 191 174 15 183 116
79 236 65 203 170 171 43 119 54 72
192 138 226 151 13 58 145 50 157 184
37 114 207 51 115 200 103 67 164 131
42 69 217 138 200 185 31 93 171 67
199 25 221 134 179 87 208 181 136 122
74 224 36 55 13 77 157 207 189 146
0 179 156 15 138 192 49 97 236 94
212 151 166 206 15 199 131 86 205 16
56 138 209 225 180 59 43 173 78 174
131 107 98 63 73 61 138 14 155 227
149 213 50 167 55 174 111 101 113 121
95 116 29 19 30 160 34 190 32 43
7 73 156 167 104 81 162 97 199 95
165 116 101 195 63 16 125 25 207 229
190 205 147 128 23 103 30 74 101 52
241 165 206 13 74 216 48 60 150 224
94 105 163 62 113 110 107 60 230 87
217 11 107 227 61 220 107 118 91 84
185 33 19 34 160 7 172 169 229 76
95 164 140 211 40 137 119 18 113 184
203 167 188 189 168 86 230 156 194 61
79 50 133 44 140 151 132 15 160 73
138 57 43 227 179 58 164 135 62 204
33 80 212 216 137 31 116 207 177 75
69 185 190 31 193 30 222 229 21 205
191 202 15 197 120 183 221 189 202 23
156 147 85 149 135 65 83 214 141 22
90 56 225 143 43 86 145 36 71 159
120 15 147 38 91 153 106 141 218 219
161 186 13 56 60 74 25 141 53 30

